<svg id="Capa_1" data-name="Capa 1" xmlns="http://www.w3.org/2000/svg" viewBox="0 0 394.49 394.49"><defs><style>.cls-1{fill:#010202;stroke:#000;stroke-miterlimit:10;stroke-width:0.25px;}.cls-2{fill:#fff;}</style></defs><circle class="cls-1" cx="197.24" cy="197.24" r="197.12"/><path class="cls-2" d="M590.08,334.67q-28.53-33.06-57-66.15l17-36.9L409.38,318.35,268.75,231.62l17,36.9q-28.52,33.08-57,66.15c-.49.58-1,1.16-1.49,1.73l2.58,0,62.28.26a288.05,288.05,0,0,1,55.26,29c37.11,25,51.92,47.7,62.08,46.89,10.15.81,25-21.9,62.08-46.89a288.34,288.34,0,0,1,55.26-29l62.28-.26,2.58,0C591.07,335.83,590.57,335.26,590.08,334.67Z" transform="translate(-212.13 -90.92)"/><path class="cls-2" d="M442.75,210.08a101.05,101.05,0,0,0-67.58,0l-33.78-26.62v69.77c12.31,17,33.18,39,62.43,43,1.67.23,3.39.4,5.15.51h0c1.75-.11,3.47-.28,5.14-.51,29.25-4,50.13-26,62.43-43V183.46Z" transform="translate(-212.13 -90.92)"/></svg>